# xmcd
# Track frame offsets:
# 150
# 11530
# 24597
# 36855
# 51852
# 66085
# 79106
# 92592
# 105345
# 120001
# 133204
# 146455
# 157958
# 171597
#
# Disc length: 2459 seconds
# Revision: 0
# Processed by: cddbd v1.4PL0 Copyright (c) Steve Scherf et al.
# Submitted via: VisiTrax 2.9.5.181 - For more info visit www.synapsa.com
#
DISCID=ac09990e
DTITLE=Various Artist - Blues Hits
DYEAR=1997
DGENRE=Vocal
TTITLE0=Rosetta Tharpe and Lucky Millinder - Trouble In Mind
TTITLE1=Big Maceo - Worried Life Blues
TTITLE2=Eddie Vinson and Cootie Williams - When My Baby Left Me
TTITLE3=Hot Lips page - Uncle Sam Blues
TTITLE4=Leadbelly - Roberta
TTITLE5=Sonny Terry and Brownie McGhee - Shake Down Blues
TTITLE6=Roy Milton - R M Blues
TTITLE7=Wynonie "Mr. Blues" Harris - Wynonie's Blues
TTITLE8=Charles Brown and J. moore Three Blaze - Drifting Blues
TTITLE9=Dinah Washington - Rich Man's Blues
TTITLE10=T Bone Walker - I'm Gonna Find My Baby
TTITLE11=Muddy Waters - Burying Ground Blues
TTITLE12=Lightnin' Hopkins - Katie Mae
TTITLE13=Arthur "Big Boy" Crudup - That's All Right
EXTD=
EXTT0=
EXTT1=
EXTT2=
EXTT3=
EXTT4=
EXTT5=
EXTT6=
EXTT7=
EXTT8=
EXTT9=
EXTT10=
EXTT11=
EXTT12=
EXTT13=
PLAYORDER=
